<svg width="49" height="30" viewBox="0 0 49 30" fill="none" xmlns="http://www.w3.org/2000/svg">
<mask id="mask0_241_2723" style="mask-type:luminance" maskUnits="userSpaceOnUse" x="0" y="0" width="35" height="30">
<path d="M0 0L-8.22306e-07 27.6329C-8.61044e-07 28.9347 1.06535 30 2.3671 30H32.3703C33.672 30 34.7374 28.9347 34.7374 27.6329L34.7374 0L0 0ZM21.3165 6.31646H13.4209C12.5478 6.31646 11.8418 5.61043 11.8418 4.73734C11.8418 3.86426 12.5478 3.15823 13.4209 3.15823H21.3165C22.1896 3.15823 22.8956 3.86426 22.8956 4.73734C22.8956 5.61043 22.1896 6.31646 21.3165 6.31646Z" fill="white"/>
</mask>
<g mask="url(#mask0_241_2723)">
<path d="M0 0L34.7374 0L34.7374 30H-8.92747e-07L0 0Z" fill="#EEEEEE"/>
</g>
<mask id="mask1_241_2723" style="mask-type:luminance" maskUnits="userSpaceOnUse" x="0" y="0" width="35" height="30">
<path d="M0 0L-8.22306e-07 27.6329C-8.61044e-07 28.9347 1.06535 30 2.3671 30H32.3703C33.672 30 34.7374 28.9347 34.7374 27.6329L34.7374 0L0 0ZM21.3165 6.31646H13.4209C12.5478 6.31646 11.8418 5.61043 11.8418 4.73734C11.8418 3.86426 12.5478 3.15823 13.4209 3.15823H21.3165C22.1896 3.15823 22.8956 3.86426 22.8956 4.73734C22.8956 5.61043 22.1896 6.31646 21.3165 6.31646Z" fill="white"/>
</mask>
<g mask="url(#mask1_241_2723)">
<mask id="mask2_241_2723" style="mask-type:luminance" maskUnits="userSpaceOnUse" x="-1" y="-1" width="36" height="31">
<path d="M-0.000976562 -0.000244141L-0.000978199 27.6327C-0.000978276 28.9344 1.06437 29.9998 2.36612 29.9998H32.3693C33.6711 29.9998 34.7364 28.9344 34.7364 27.6327L34.7364 -0.000244141L-0.000976562 -0.000244141ZM21.3155 6.31622L13.4199 6.31622C12.5468 6.31622 11.8408 5.61018 11.8408 4.7371C11.8408 3.86402 12.5468 3.15799 13.4199 3.15799H21.3155C22.1886 3.15799 22.8946 3.86402 22.8946 4.7371C22.8946 5.61018 22.1886 6.31622 21.3155 6.31622Z" fill="white"/>
</mask>
<g mask="url(#mask2_241_2723)">
<path d="M-0.000976562 -0.000244141L34.7364 -0.000244141L34.7364 14.9998L-0.000977451 14.9998L-0.000976562 -0.000244141Z" fill="#E5E5E5"/>
</g>
<path d="M-0.000976562 14.8044H34.7364L34.7364 15.003H-0.000976571L-0.000976562 14.8044Z" fill="#E5E5E5"/>
<path d="M-0.000976562 15H34.7364L34.7364 15.1986H-0.000976571L-0.000976562 15Z" fill="#E5E5E5"/>
<path d="M21.3155 6.31622L13.4199 6.31622C12.5815 6.31622 11.8975 5.66062 11.8471 4.83481C11.844 4.86948 11.8408 4.901 11.8408 4.93252C11.8408 5.8056 12.5468 6.51164 13.4199 6.51164L21.3155 6.51164C22.1886 6.51164 22.8946 5.8056 22.8946 4.93252C22.8946 4.89785 22.8946 4.86633 22.8883 4.83481C22.8379 5.66062 22.1539 6.31622 21.3155 6.31622ZM-0.000976562 -0.000244141L-0.000976571 0.198328L34.7364 0.198328L34.7364 -0.000244141L-0.000976562 -0.000244141Z" fill="#E5E5E5"/>
<path d="M13.4229 3.15807H21.3184C22.1568 3.15807 22.8408 3.81367 22.8912 4.63947C22.8912 4.6048 22.8975 4.57328 22.8975 4.54176C22.8975 3.66868 22.1915 2.96265 21.3184 2.96265H13.4229C12.5498 2.96265 11.8437 3.66868 11.8437 4.54176C11.8437 4.57643 11.8437 4.60795 11.85 4.63947C11.9005 3.81367 12.5844 3.15807 13.4229 3.15807ZM32.3691 29.8044H2.36905C1.0673 29.8044 0.00195204 28.7391 0.0019521 27.4374L0.00195209 27.6359C0.00195203 28.9377 1.0673 30.003 2.36905 30.003H32.3691C33.6708 30.003 34.7362 28.9377 34.7362 27.6359L34.7362 27.4374C34.7362 28.7391 33.6708 29.8044 32.3691 29.8044Z" fill="#E5E5E5"/>
<mask id="mask3_241_2723" style="mask-type:luminance" maskUnits="userSpaceOnUse" x="2" y="12" width="31" height="31">
<mask id="mask4_241_2723" style="mask-type:luminance" maskUnits="userSpaceOnUse" x="2" y="12" width="31" height="31">
<mask id="mask5_241_2723" style="mask-type:luminance" maskUnits="userSpaceOnUse" x="2" y="12" width="31" height="31">
<mask id="mask6_241_2723" style="mask-type:luminance" maskUnits="userSpaceOnUse" x="2" y="12" width="31" height="31">
<path d="M17.3623 42.6326C25.6466 42.6326 32.3623 35.9169 32.3623 27.6326C32.3623 19.3483 25.6466 12.6326 17.3623 12.6326C9.07804 12.6326 2.3623 19.3483 2.3623 27.6326C2.3623 35.9169 9.07804 42.6326 17.3623 42.6326Z" fill="white"/>
</mask>
<g mask="url(#mask6_241_2723)">
<path d="M17.3623 42.6326C25.6466 42.6326 32.3623 35.9169 32.3623 27.6326C32.3623 19.3483 25.6466 12.6326 17.3623 12.6326C9.07804 12.6326 2.3623 19.3483 2.3623 27.6326C2.3623 35.9169 9.07804 42.6326 17.3623 42.6326Z" fill="white"/>
</g>
</mask>
<g mask="url(#mask5_241_2723)">
<path d="M17.3653 42.6327C25.6495 42.6327 32.3653 35.917 32.3653 27.6327C32.3653 19.3484 25.6495 12.6327 17.3653 12.6327C9.08097 12.6327 2.36523 19.3484 2.36523 27.6327C2.36523 35.917 9.08097 42.6327 17.3653 42.6327Z" fill="white"/>
</g>
</mask>
<g mask="url(#mask4_241_2723)">
<path d="M17.3662 42.6327C25.6505 42.6327 32.3662 35.917 32.3662 27.6327C32.3662 19.3484 25.6505 12.6327 17.3662 12.6327C9.08195 12.6327 2.36621 19.3484 2.36621 27.6327C2.36621 35.917 9.08195 42.6327 17.3662 42.6327Z" fill="white"/>
</g>
</mask>
<g mask="url(#mask3_241_2723)">
<path d="M4.75293 12.6328L4.75293 31.0432H11.4665L17.3732 20.8152H32.3733L32.3733 12.6328H4.75293ZM4.75293 12.6328L4.75293 31.0432H11.4665L17.3732 20.8152H32.3733L32.3733 12.6328H4.75293Z" fill="#DB4437"/>
<path d="M2.36838 42.6328H16.6466L23.2751 36.0043L23.2751 31.0432H11.4617L2.36523 15.4443L2.36523 42.6328H2.36838ZM2.36838 42.6328H16.6466L23.2751 36.0043L23.2751 31.0432H11.4617L2.36523 15.4443L2.36523 42.6328H2.36838Z" fill="#0F9D58"/>
<path d="M17.369 20.812L23.2757 31.04L16.6504 42.6328H32.3722L32.3722 20.812H17.3722H17.369ZM17.369 20.812L23.2757 31.04L16.6504 42.6328H32.3722L32.3722 20.812H17.3722H17.369Z" fill="#FFCD40"/>
<path d="M17.3686 34.4535C21.1356 34.4535 24.1894 31.3998 24.1894 27.6328C24.1894 23.8658 21.1356 20.812 17.3686 20.812C13.6016 20.812 10.5479 23.8658 10.5479 27.6328C10.5479 31.3998 13.6016 34.4535 17.3686 34.4535Z" fill="#F1F1F1"/>
<path d="M17.3691 33.0887C20.3823 33.0887 22.8251 30.646 22.8251 27.6327C22.8251 24.6195 20.3823 22.1768 17.3691 22.1768C14.3558 22.1768 11.9131 24.6195 11.9131 27.6327C11.9131 30.646 14.3558 33.0887 17.3691 33.0887Z" fill="#4285F4"/>
</g>
</g>
</svg>
