<svg width="80" height="92" viewBox="0 0 80 92" fill="none" xmlns="http://www.w3.org/2000/svg">
<g opacity="0.3">
<mask id="mask0_135_4737" style="mask-type:alpha" maskUnits="userSpaceOnUse" x="10" y="0" width="8" height="10">
<path d="M14.2881 9.08427C16.2631 9.08427 17.8642 7.23688 17.8642 4.95806C17.8642 2.67925 16.2631 0.831909 14.2881 0.831909C12.313 0.831909 10.7119 2.67925 10.7119 4.95806C10.7119 7.23688 12.313 9.08427 14.2881 9.08427Z" fill="url(#paint0_linear_135_4737)"/>
</mask>
<g mask="url(#mask0_135_4737)">
<path d="M14.2881 9.08427C16.2631 9.08427 17.8642 7.23688 17.8642 4.95806C17.8642 2.67925 16.2631 0.831909 14.2881 0.831909C12.313 0.831909 10.7119 2.67925 10.7119 4.95806C10.7119 7.23688 12.313 9.08427 14.2881 9.08427Z" fill="url(#paint1_linear_135_4737)"/>
</g>
<mask id="mask1_135_4737" style="mask-type:alpha" maskUnits="userSpaceOnUse" x="31" y="0" width="8" height="10">
<path d="M35 9.08427C36.975 9.08427 38.5762 7.23688 38.5762 4.95806C38.5762 2.67925 36.975 0.831909 35 0.831909C33.0249 0.831909 31.4238 2.67925 31.4238 4.95806C31.4238 7.23688 33.0249 9.08427 35 9.08427Z" fill="url(#paint2_linear_135_4737)"/>
</mask>
<g mask="url(#mask1_135_4737)">
<path d="M35 9.08427C36.975 9.08427 38.5762 7.23688 38.5762 4.95806C38.5762 2.67925 36.975 0.831909 35 0.831909C33.0249 0.831909 31.4238 2.67925 31.4238 4.95806C31.4238 7.23688 33.0249 9.08427 35 9.08427Z" fill="url(#paint3_linear_135_4737)"/>
</g>
<mask id="mask2_135_4737" style="mask-type:alpha" maskUnits="userSpaceOnUse" x="52" y="0" width="8" height="10">
<path d="M55.7119 9.08427C57.687 9.08427 59.2881 7.23688 59.2881 4.95806C59.2881 2.67925 57.687 0.831909 55.7119 0.831909C53.7368 0.831909 52.1357 2.67925 52.1357 4.95806C52.1357 7.23688 53.7368 9.08427 55.7119 9.08427Z" fill="url(#paint4_linear_135_4737)"/>
</mask>
<g mask="url(#mask2_135_4737)">
<path d="M55.7119 9.08427C57.687 9.08427 59.2881 7.23688 59.2881 4.95806C59.2881 2.67925 57.687 0.831909 55.7119 0.831909C53.7368 0.831909 52.1357 2.67925 52.1357 4.95806C52.1357 7.23688 53.7368 9.08427 55.7119 9.08427Z" fill="url(#paint5_linear_135_4737)"/>
</g>
<mask id="mask3_135_4737" style="mask-type:alpha" maskUnits="userSpaceOnUse" x="72" y="0" width="8" height="10">
<path d="M76.4238 9.08427C78.3989 9.08427 80 7.23688 80 4.95806C80 2.67925 78.3989 0.831909 76.4238 0.831909C74.4488 0.831909 72.8477 2.67925 72.8477 4.95806C72.8477 7.23688 74.4488 9.08427 76.4238 9.08427Z" fill="url(#paint6_linear_135_4737)"/>
</mask>
<g mask="url(#mask3_135_4737)">
<path d="M76.4238 9.08427C78.3989 9.08427 80 7.23688 80 4.95806C80 2.67925 78.3989 0.831909 76.4238 0.831909C74.4488 0.831909 72.8477 2.67925 72.8477 4.95806C72.8477 7.23688 74.4488 9.08427 76.4238 9.08427Z" fill="url(#paint7_linear_135_4737)"/>
</g>
<mask id="mask4_135_4737" style="mask-type:alpha" maskUnits="userSpaceOnUse" x="10" y="21" width="8" height="9">
<path d="M14.2881 29.801C16.2631 29.801 17.8642 27.9537 17.8642 25.6748C17.8642 23.396 16.2631 21.5487 14.2881 21.5487C12.313 21.5487 10.7119 23.396 10.7119 25.6748C10.7119 27.9537 12.313 29.801 14.2881 29.801Z" fill="url(#paint8_linear_135_4737)"/>
</mask>
<g mask="url(#mask4_135_4737)">
<path d="M14.2881 29.801C16.2631 29.801 17.8642 27.9537 17.8642 25.6748C17.8642 23.396 16.2631 21.5487 14.2881 21.5487C12.313 21.5487 10.7119 23.396 10.7119 25.6748C10.7119 27.9537 12.313 29.801 14.2881 29.801Z" fill="url(#paint9_linear_135_4737)"/>
</g>
<mask id="mask5_135_4737" style="mask-type:alpha" maskUnits="userSpaceOnUse" x="31" y="21" width="8" height="9">
<path d="M35 29.801C36.975 29.801 38.5762 27.9537 38.5762 25.6748C38.5762 23.396 36.975 21.5487 35 21.5487C33.0249 21.5487 31.4238 23.396 31.4238 25.6748C31.4238 27.9537 33.0249 29.801 35 29.801Z" fill="url(#paint10_linear_135_4737)"/>
</mask>
<g mask="url(#mask5_135_4737)">
<path d="M35 29.801C36.975 29.801 38.5762 27.9537 38.5762 25.6748C38.5762 23.396 36.975 21.5487 35 21.5487C33.0249 21.5487 31.4238 23.396 31.4238 25.6748C31.4238 27.9537 33.0249 29.801 35 29.801Z" fill="url(#paint11_linear_135_4737)"/>
</g>
<mask id="mask6_135_4737" style="mask-type:alpha" maskUnits="userSpaceOnUse" x="52" y="21" width="8" height="9">
<path d="M55.7119 29.801C57.687 29.801 59.2881 27.9537 59.2881 25.6748C59.2881 23.396 57.687 21.5487 55.7119 21.5487C53.7368 21.5487 52.1357 23.396 52.1357 25.6748C52.1357 27.9537 53.7368 29.801 55.7119 29.801Z" fill="url(#paint12_linear_135_4737)"/>
</mask>
<g mask="url(#mask6_135_4737)">
<path d="M55.7119 29.801C57.687 29.801 59.2881 27.9537 59.2881 25.6748C59.2881 23.396 57.687 21.5487 55.7119 21.5487C53.7368 21.5487 52.1357 23.396 52.1357 25.6748C52.1357 27.9537 53.7368 29.801 55.7119 29.801Z" fill="url(#paint13_linear_135_4737)"/>
</g>
<mask id="mask7_135_4737" style="mask-type:alpha" maskUnits="userSpaceOnUse" x="72" y="21" width="8" height="9">
<path d="M76.4238 29.801C78.3989 29.801 80 27.9537 80 25.6748C80 23.396 78.3989 21.5487 76.4238 21.5487C74.4488 21.5487 72.8477 23.396 72.8477 25.6748C72.8477 27.9537 74.4488 29.801 76.4238 29.801Z" fill="url(#paint14_linear_135_4737)"/>
</mask>
<g mask="url(#mask7_135_4737)">
<path d="M76.4238 29.801C78.3989 29.801 80 27.9537 80 25.6748C80 23.396 78.3989 21.5487 76.4238 21.5487C74.4488 21.5487 72.8477 23.396 72.8477 25.6748C72.8477 27.9537 74.4488 29.801 76.4238 29.801Z" fill="url(#paint15_linear_135_4737)"/>
</g>
<mask id="mask8_135_4737" style="mask-type:alpha" maskUnits="userSpaceOnUse" x="10" y="42" width="8" height="9">
<path d="M14.2881 50.4749C16.2631 50.4749 17.8642 48.6275 17.8642 46.3487C17.8642 44.0699 16.2631 42.2225 14.2881 42.2225C12.313 42.2225 10.7119 44.0699 10.7119 46.3487C10.7119 48.6275 12.313 50.4749 14.2881 50.4749Z" fill="url(#paint16_linear_135_4737)"/>
</mask>
<g mask="url(#mask8_135_4737)">
<path d="M14.2881 50.4749C16.2631 50.4749 17.8642 48.6275 17.8642 46.3487C17.8642 44.0699 16.2631 42.2225 14.2881 42.2225C12.313 42.2225 10.7119 44.0699 10.7119 46.3487C10.7119 48.6275 12.313 50.4749 14.2881 50.4749Z" fill="url(#paint17_linear_135_4737)"/>
</g>
<mask id="mask9_135_4737" style="mask-type:alpha" maskUnits="userSpaceOnUse" x="31" y="42" width="8" height="9">
<path d="M35 50.4749C36.975 50.4749 38.5762 48.6275 38.5762 46.3487C38.5762 44.0699 36.975 42.2225 35 42.2225C33.0249 42.2225 31.4238 44.0699 31.4238 46.3487C31.4238 48.6275 33.0249 50.4749 35 50.4749Z" fill="url(#paint18_linear_135_4737)"/>
</mask>
<g mask="url(#mask9_135_4737)">
<path d="M35 50.4749C36.975 50.4749 38.5762 48.6275 38.5762 46.3487C38.5762 44.0699 36.975 42.2225 35 42.2225C33.0249 42.2225 31.4238 44.0699 31.4238 46.3487C31.4238 48.6275 33.0249 50.4749 35 50.4749Z" fill="url(#paint19_linear_135_4737)"/>
</g>
<mask id="mask10_135_4737" style="mask-type:alpha" maskUnits="userSpaceOnUse" x="52" y="42" width="8" height="9">
<path d="M55.7119 50.4749C57.687 50.4749 59.2881 48.6275 59.2881 46.3487C59.2881 44.0699 57.687 42.2225 55.7119 42.2225C53.7368 42.2225 52.1357 44.0699 52.1357 46.3487C52.1357 48.6275 53.7368 50.4749 55.7119 50.4749Z" fill="url(#paint20_linear_135_4737)"/>
</mask>
<g mask="url(#mask10_135_4737)">
<path d="M55.7119 50.4749C57.687 50.4749 59.2881 48.6275 59.2881 46.3487C59.2881 44.0699 57.687 42.2225 55.7119 42.2225C53.7368 42.2225 52.1357 44.0699 52.1357 46.3487C52.1357 48.6275 53.7368 50.4749 55.7119 50.4749Z" fill="url(#paint21_linear_135_4737)"/>
</g>
<mask id="mask11_135_4737" style="mask-type:alpha" maskUnits="userSpaceOnUse" x="72" y="42" width="8" height="9">
<path d="M76.4238 50.4749C78.3989 50.4749 80 48.6275 80 46.3487C80 44.0699 78.3989 42.2225 76.4238 42.2225C74.4488 42.2225 72.8477 44.0699 72.8477 46.3487C72.8477 48.6275 74.4488 50.4749 76.4238 50.4749Z" fill="url(#paint22_linear_135_4737)"/>
</mask>
<g mask="url(#mask11_135_4737)">
<path d="M76.4238 50.4749C78.3989 50.4749 80 48.6275 80 46.3487C80 44.0699 78.3989 42.2225 76.4238 42.2225C74.4488 42.2225 72.8477 44.0699 72.8477 46.3487C72.8477 48.6275 74.4488 50.4749 76.4238 50.4749Z" fill="url(#paint23_linear_135_4737)"/>
</g>
<mask id="mask12_135_4737" style="mask-type:alpha" maskUnits="userSpaceOnUse" x="10" y="62" width="8" height="10">
<path d="M14.2881 71.1917C16.2631 71.1917 17.8642 69.3443 17.8642 67.0655C17.8642 64.7867 16.2631 62.9393 14.2881 62.9393C12.313 62.9393 10.7119 64.7867 10.7119 67.0655C10.7119 69.3443 12.313 71.1917 14.2881 71.1917Z" fill="url(#paint24_linear_135_4737)"/>
</mask>
<g mask="url(#mask12_135_4737)">
<path d="M14.2881 71.1917C16.2631 71.1917 17.8642 69.3443 17.8642 67.0655C17.8642 64.7867 16.2631 62.9393 14.2881 62.9393C12.313 62.9393 10.7119 64.7867 10.7119 67.0655C10.7119 69.3443 12.313 71.1917 14.2881 71.1917Z" fill="url(#paint25_linear_135_4737)"/>
</g>
<mask id="mask13_135_4737" style="mask-type:alpha" maskUnits="userSpaceOnUse" x="31" y="62" width="8" height="10">
<path d="M35 71.1917C36.975 71.1917 38.5762 69.3443 38.5762 67.0655C38.5762 64.7867 36.975 62.9393 35 62.9393C33.0249 62.9393 31.4238 64.7867 31.4238 67.0655C31.4238 69.3443 33.0249 71.1917 35 71.1917Z" fill="url(#paint26_linear_135_4737)"/>
</mask>
<g mask="url(#mask13_135_4737)">
<path d="M35 71.1917C36.975 71.1917 38.5762 69.3443 38.5762 67.0655C38.5762 64.7867 36.975 62.9393 35 62.9393C33.0249 62.9393 31.4238 64.7867 31.4238 67.0655C31.4238 69.3443 33.0249 71.1917 35 71.1917Z" fill="url(#paint27_linear_135_4737)"/>
</g>
<mask id="mask14_135_4737" style="mask-type:alpha" maskUnits="userSpaceOnUse" x="52" y="62" width="8" height="10">
<path d="M55.7119 71.1917C57.687 71.1917 59.2881 69.3443 59.2881 67.0655C59.2881 64.7867 57.687 62.9393 55.7119 62.9393C53.7368 62.9393 52.1357 64.7867 52.1357 67.0655C52.1357 69.3443 53.7368 71.1917 55.7119 71.1917Z" fill="url(#paint28_linear_135_4737)"/>
</mask>
<g mask="url(#mask14_135_4737)">
<path d="M55.7119 71.1917C57.687 71.1917 59.2881 69.3443 59.2881 67.0655C59.2881 64.7867 57.687 62.9393 55.7119 62.9393C53.7368 62.9393 52.1357 64.7867 52.1357 67.0655C52.1357 69.3443 53.7368 71.1917 55.7119 71.1917Z" fill="url(#paint29_linear_135_4737)"/>
</g>
<mask id="mask15_135_4737" style="mask-type:alpha" maskUnits="userSpaceOnUse" x="72" y="62" width="8" height="10">
<path d="M76.4238 71.1917C78.3989 71.1917 80 69.3443 80 67.0655C80 64.7867 78.3989 62.9393 76.4238 62.9393C74.4488 62.9393 72.8477 64.7867 72.8477 67.0655C72.8477 69.3443 74.4488 71.1917 76.4238 71.1917Z" fill="url(#paint30_linear_135_4737)"/>
</mask>
<g mask="url(#mask15_135_4737)">
<path d="M76.4238 71.1917C78.3989 71.1917 80 69.3443 80 67.0655C80 64.7867 78.3989 62.9393 76.4238 62.9393C74.4488 62.9393 72.8477 64.7867 72.8477 67.0655C72.8477 69.3443 74.4488 71.1917 76.4238 71.1917Z" fill="url(#paint31_linear_135_4737)"/>
</g>
<mask id="mask16_135_4737" style="mask-type:alpha" maskUnits="userSpaceOnUse" x="10" y="83" width="8" height="9">
<path d="M14.2881 91.8655C16.2631 91.8655 17.8642 90.0182 17.8642 87.7394C17.8642 85.4605 16.2631 83.6132 14.2881 83.6132C12.313 83.6132 10.7119 85.4605 10.7119 87.7394C10.7119 90.0182 12.313 91.8655 14.2881 91.8655Z" fill="url(#paint32_linear_135_4737)"/>
</mask>
<g mask="url(#mask16_135_4737)">
<path d="M14.2881 91.8655C16.2631 91.8655 17.8642 90.0182 17.8642 87.7394C17.8642 85.4605 16.2631 83.6132 14.2881 83.6132C12.313 83.6132 10.7119 85.4605 10.7119 87.7394C10.7119 90.0182 12.313 91.8655 14.2881 91.8655Z" fill="url(#paint33_linear_135_4737)"/>
</g>
<mask id="mask17_135_4737" style="mask-type:alpha" maskUnits="userSpaceOnUse" x="31" y="83" width="8" height="9">
<path d="M35 91.8655C36.975 91.8655 38.5762 90.0182 38.5762 87.7394C38.5762 85.4605 36.975 83.6132 35 83.6132C33.0249 83.6132 31.4238 85.4605 31.4238 87.7394C31.4238 90.0182 33.0249 91.8655 35 91.8655Z" fill="url(#paint34_linear_135_4737)"/>
</mask>
<g mask="url(#mask17_135_4737)">
<path d="M35 91.8655C36.975 91.8655 38.5762 90.0182 38.5762 87.7394C38.5762 85.4605 36.975 83.6132 35 83.6132C33.0249 83.6132 31.4238 85.4605 31.4238 87.7394C31.4238 90.0182 33.0249 91.8655 35 91.8655Z" fill="url(#paint35_linear_135_4737)"/>
</g>
<mask id="mask18_135_4737" style="mask-type:alpha" maskUnits="userSpaceOnUse" x="52" y="83" width="8" height="9">
<path d="M55.7119 91.8655C57.687 91.8655 59.2881 90.0182 59.2881 87.7394C59.2881 85.4605 57.687 83.6132 55.7119 83.6132C53.7368 83.6132 52.1357 85.4605 52.1357 87.7394C52.1357 90.0182 53.7368 91.8655 55.7119 91.8655Z" fill="url(#paint36_linear_135_4737)"/>
</mask>
<g mask="url(#mask18_135_4737)">
<path d="M55.7119 91.8655C57.687 91.8655 59.2881 90.0182 59.2881 87.7394C59.2881 85.4605 57.687 83.6132 55.7119 83.6132C53.7368 83.6132 52.1357 85.4605 52.1357 87.7394C52.1357 90.0182 53.7368 91.8655 55.7119 91.8655Z" fill="url(#paint37_linear_135_4737)"/>
</g>
<mask id="mask19_135_4737" style="mask-type:alpha" maskUnits="userSpaceOnUse" x="72" y="83" width="8" height="9">
<path d="M76.4238 91.8655C78.3989 91.8655 80 90.0182 80 87.7394C80 85.4605 78.3989 83.6132 76.4238 83.6132C74.4488 83.6132 72.8477 85.4605 72.8477 87.7394C72.8477 90.0182 74.4488 91.8655 76.4238 91.8655Z" fill="url(#paint38_linear_135_4737)"/>
</mask>
<g mask="url(#mask19_135_4737)">
<path d="M76.4238 91.8655C78.3989 91.8655 80 90.0182 80 87.7394C80 85.4605 78.3989 83.6132 76.4238 83.6132C74.4488 83.6132 72.8477 85.4605 72.8477 87.7394C72.8477 90.0182 74.4488 91.8655 76.4238 91.8655Z" fill="url(#paint39_linear_135_4737)"/>
</g>
</g>
<defs>
<linearGradient id="paint0_linear_135_4737" x1="45.5403" y1="96.4905" x2="-17.0351" y2="-41.1808" gradientUnits="userSpaceOnUse">
<stop/>
<stop offset="1" stop-color="white"/>
</linearGradient>
<linearGradient id="paint1_linear_135_4737" x1="45.5403" y1="96.4905" x2="-17.0351" y2="-41.1808" gradientUnits="userSpaceOnUse">
<stop stop-color="#97C3F9"/>
<stop offset="1" stop-color="#93C1F9"/>
</linearGradient>
<linearGradient id="paint2_linear_135_4737" x1="63.4638" y1="88.3439" x2="0.888487" y2="-49.3274" gradientUnits="userSpaceOnUse">
<stop/>
<stop offset="1" stop-color="white"/>
</linearGradient>
<linearGradient id="paint3_linear_135_4737" x1="63.4638" y1="88.3439" x2="0.888487" y2="-49.3274" gradientUnits="userSpaceOnUse">
<stop stop-color="#97C3F9"/>
<stop offset="1" stop-color="#93C1F9"/>
</linearGradient>
<linearGradient id="paint4_linear_135_4737" x1="81.3872" y1="80.1969" x2="18.8118" y2="-57.4744" gradientUnits="userSpaceOnUse">
<stop/>
<stop offset="1" stop-color="white"/>
</linearGradient>
<linearGradient id="paint5_linear_135_4737" x1="81.3872" y1="80.1969" x2="18.8118" y2="-57.4744" gradientUnits="userSpaceOnUse">
<stop stop-color="#97C3F9"/>
<stop offset="1" stop-color="#93C1F9"/>
</linearGradient>
<linearGradient id="paint6_linear_135_4737" x1="99.3107" y1="72.0502" x2="36.7353" y2="-65.6211" gradientUnits="userSpaceOnUse">
<stop/>
<stop offset="1" stop-color="white"/>
</linearGradient>
<linearGradient id="paint7_linear_135_4737" x1="99.3107" y1="72.0502" x2="36.7353" y2="-65.6211" gradientUnits="userSpaceOnUse">
<stop stop-color="#97C3F9"/>
<stop offset="1" stop-color="#93C1F9"/>
</linearGradient>
<linearGradient id="paint8_linear_135_4737" x1="39.4238" y1="99.2698" x2="-23.1505" y2="-38.4007" gradientUnits="userSpaceOnUse">
<stop/>
<stop offset="1" stop-color="white"/>
</linearGradient>
<linearGradient id="paint9_linear_135_4737" x1="39.4238" y1="99.2698" x2="-23.1505" y2="-38.4007" gradientUnits="userSpaceOnUse">
<stop stop-color="#97C3F9"/>
<stop offset="1" stop-color="#93C1F9"/>
</linearGradient>
<linearGradient id="paint10_linear_135_4737" x1="57.3472" y1="91.123" x2="-5.22706" y2="-46.5473" gradientUnits="userSpaceOnUse">
<stop/>
<stop offset="1" stop-color="white"/>
</linearGradient>
<linearGradient id="paint11_linear_135_4737" x1="57.3472" y1="91.123" x2="-5.22706" y2="-46.5473" gradientUnits="userSpaceOnUse">
<stop stop-color="#97C3F9"/>
<stop offset="1" stop-color="#93C1F9"/>
</linearGradient>
<linearGradient id="paint12_linear_135_4737" x1="75.2707" y1="82.9764" x2="12.6964" y2="-54.694" gradientUnits="userSpaceOnUse">
<stop/>
<stop offset="1" stop-color="white"/>
</linearGradient>
<linearGradient id="paint13_linear_135_4737" x1="75.2707" y1="82.9764" x2="12.6964" y2="-54.694" gradientUnits="userSpaceOnUse">
<stop stop-color="#97C3F9"/>
<stop offset="1" stop-color="#93C1F9"/>
</linearGradient>
<linearGradient id="paint14_linear_135_4737" x1="93.1942" y1="74.8298" x2="30.6199" y2="-62.8406" gradientUnits="userSpaceOnUse">
<stop/>
<stop offset="1" stop-color="white"/>
</linearGradient>
<linearGradient id="paint15_linear_135_4737" x1="93.1942" y1="74.8298" x2="30.6199" y2="-62.8406" gradientUnits="userSpaceOnUse">
<stop stop-color="#97C3F9"/>
<stop offset="1" stop-color="#93C1F9"/>
</linearGradient>
<linearGradient id="paint16_linear_135_4737" x1="33.3073" y1="102.051" x2="-29.2681" y2="-35.6207" gradientUnits="userSpaceOnUse">
<stop/>
<stop offset="1" stop-color="white"/>
</linearGradient>
<linearGradient id="paint17_linear_135_4737" x1="33.3073" y1="102.051" x2="-29.2681" y2="-35.6207" gradientUnits="userSpaceOnUse">
<stop stop-color="#97C3F9"/>
<stop offset="1" stop-color="#93C1F9"/>
</linearGradient>
<linearGradient id="paint18_linear_135_4737" x1="51.2307" y1="93.9039" x2="-11.3446" y2="-43.7674" gradientUnits="userSpaceOnUse">
<stop/>
<stop offset="1" stop-color="white"/>
</linearGradient>
<linearGradient id="paint19_linear_135_4737" x1="51.2307" y1="93.9039" x2="-11.3446" y2="-43.7674" gradientUnits="userSpaceOnUse">
<stop stop-color="#97C3F9"/>
<stop offset="1" stop-color="#93C1F9"/>
</linearGradient>
<linearGradient id="paint20_linear_135_4737" x1="69.1542" y1="85.7571" x2="6.57884" y2="-51.9142" gradientUnits="userSpaceOnUse">
<stop/>
<stop offset="1" stop-color="white"/>
</linearGradient>
<linearGradient id="paint21_linear_135_4737" x1="69.1542" y1="85.7571" x2="6.57884" y2="-51.9142" gradientUnits="userSpaceOnUse">
<stop stop-color="#97C3F9"/>
<stop offset="1" stop-color="#93C1F9"/>
</linearGradient>
<linearGradient id="paint22_linear_135_4737" x1="87.0777" y1="77.6104" x2="24.5023" y2="-60.0609" gradientUnits="userSpaceOnUse">
<stop/>
<stop offset="1" stop-color="white"/>
</linearGradient>
<linearGradient id="paint23_linear_135_4737" x1="87.0777" y1="77.6104" x2="24.5023" y2="-60.0609" gradientUnits="userSpaceOnUse">
<stop stop-color="#97C3F9"/>
<stop offset="1" stop-color="#93C1F9"/>
</linearGradient>
<linearGradient id="paint24_linear_135_4737" x1="27.1908" y1="104.831" x2="-35.3846" y2="-32.8406" gradientUnits="userSpaceOnUse">
<stop/>
<stop offset="1" stop-color="white"/>
</linearGradient>
<linearGradient id="paint25_linear_135_4737" x1="27.1908" y1="104.831" x2="-35.3846" y2="-32.8406" gradientUnits="userSpaceOnUse">
<stop stop-color="#97C3F9"/>
<stop offset="1" stop-color="#93C1F9"/>
</linearGradient>
<linearGradient id="paint26_linear_135_4737" x1="45.1142" y1="96.6838" x2="-17.4611" y2="-40.9873" gradientUnits="userSpaceOnUse">
<stop/>
<stop offset="1" stop-color="white"/>
</linearGradient>
<linearGradient id="paint27_linear_135_4737" x1="45.1142" y1="96.6838" x2="-17.4611" y2="-40.9873" gradientUnits="userSpaceOnUse">
<stop stop-color="#97C3F9"/>
<stop offset="1" stop-color="#93C1F9"/>
</linearGradient>
<linearGradient id="paint28_linear_135_4737" x1="63.0377" y1="88.5372" x2="0.462368" y2="-49.1341" gradientUnits="userSpaceOnUse">
<stop/>
<stop offset="1" stop-color="white"/>
</linearGradient>
<linearGradient id="paint29_linear_135_4737" x1="63.0377" y1="88.5372" x2="0.462368" y2="-49.1341" gradientUnits="userSpaceOnUse">
<stop stop-color="#97C3F9"/>
<stop offset="1" stop-color="#93C1F9"/>
</linearGradient>
<linearGradient id="paint30_linear_135_4737" x1="80.9612" y1="80.3905" x2="18.3858" y2="-57.2809" gradientUnits="userSpaceOnUse">
<stop/>
<stop offset="1" stop-color="white"/>
</linearGradient>
<linearGradient id="paint31_linear_135_4737" x1="80.9612" y1="80.3905" x2="18.3858" y2="-57.2809" gradientUnits="userSpaceOnUse">
<stop stop-color="#97C3F9"/>
<stop offset="1" stop-color="#93C1F9"/>
</linearGradient>
<linearGradient id="paint32_linear_135_4737" x1="21.0743" y1="107.611" x2="-41.501" y2="-30.0605" gradientUnits="userSpaceOnUse">
<stop/>
<stop offset="1" stop-color="white"/>
</linearGradient>
<linearGradient id="paint33_linear_135_4737" x1="21.0743" y1="107.611" x2="-41.501" y2="-30.0605" gradientUnits="userSpaceOnUse">
<stop stop-color="#97C3F9"/>
<stop offset="1" stop-color="#93C1F9"/>
</linearGradient>
<linearGradient id="paint34_linear_135_4737" x1="38.9978" y1="99.464" x2="-23.5775" y2="-38.2071" gradientUnits="userSpaceOnUse">
<stop/>
<stop offset="1" stop-color="white"/>
</linearGradient>
<linearGradient id="paint35_linear_135_4737" x1="38.9978" y1="99.464" x2="-23.5775" y2="-38.2071" gradientUnits="userSpaceOnUse">
<stop stop-color="#97C3F9"/>
<stop offset="1" stop-color="#93C1F9"/>
</linearGradient>
<linearGradient id="paint36_linear_135_4737" x1="56.9212" y1="91.3173" x2="-5.65409" y2="-46.354" gradientUnits="userSpaceOnUse">
<stop/>
<stop offset="1" stop-color="white"/>
</linearGradient>
<linearGradient id="paint37_linear_135_4737" x1="56.9212" y1="91.3173" x2="-5.65409" y2="-46.354" gradientUnits="userSpaceOnUse">
<stop stop-color="#97C3F9"/>
<stop offset="1" stop-color="#93C1F9"/>
</linearGradient>
<linearGradient id="paint38_linear_135_4737" x1="74.8447" y1="83.1706" x2="12.2694" y2="-54.5007" gradientUnits="userSpaceOnUse">
<stop/>
<stop offset="1" stop-color="white"/>
</linearGradient>
<linearGradient id="paint39_linear_135_4737" x1="74.8447" y1="83.1706" x2="12.2694" y2="-54.5007" gradientUnits="userSpaceOnUse">
<stop stop-color="#97C3F9"/>
<stop offset="1" stop-color="#93C1F9"/>
</linearGradient>
</defs>
</svg>
